# xmcd CD database file
#
# Track frame offsets:
#	150
#	18621
#	34408
#	50581
#	66819
#	88538
#	105380
#	125997
#	141636
#	161657
#	179247
#
# Disc length: 2653 seconds
#
# Revision: 0
# Processed by: cddbd v1.5.2PL0 Copyright (c) Steve Scherf et al.
# Submitted via: CDex 1.51
#
DISCID=aa0a5b0b
DTITLE=Lil Wayne and Same Ol Two Step - Getta be me
DYEAR=2009
DGENRE=Country
TTITLE0=Follow Me Down!
TTITLE1=Make Up Your Mind
TTITLE2=Rockey 2 Step
TTITLE3=Gotta Be Me
TTITLE4=Don't Park Your Body
TTITLE5=I Like Your Style
TTITLE6=All I Want To Do Is Zydeco
TTITLE7=Roy!
TTITLE8=Don't Touch!
TTITLE9=Good Ol Days
TTITLE10=Stay Away From Me
EXTD=YEAR: 2009
EXTT0=
EXTT1=
EXTT2=
EXTT3=
EXTT4=
EXTT5=
EXTT6=
EXTT7=
EXTT8=
EXTT9=
EXTT10=
PLAYORDER=
